<?xml version="1.0" encoding="utf-8"?>
<!-- Generator: Adobe Illustrator 24.2.0, SVG Export Plug-In . SVG Version: 6.00 Build 0)  -->
<svg version="1.1" id="Layer_1" xmlns="http://www.w3.org/2000/svg" xmlns:xlink="http://www.w3.org/1999/xlink" x="0px" y="0px"
	 viewBox="0 0 1275.3 238.1" style="enable-background:new 0 0 1275.3 238.1;" xml:space="preserve">
<style type="text/css">
	.st0{fill:#FF6E4D;}
</style>
<g>
	<g>
		<path d="M166.1,172.5h-109l-22.9,58.8H0.9L91.3,2.8h41.8l89.8,228.5H189L166.1,172.5z M154.7,143.1L111.6,32.8L68.5,143.1H154.7z"
			/>
		<path d="M244,68.1h31v22.8c9.8-14.7,26.1-26.1,52.2-26.1c37.5,0,58.7,22.8,58.7,57.1v109.4h-31V128.5c0-22.8-9.8-37.5-33-37.5
			h-2.6c-23.2,0-44.4,18-44.4,49v91.3h-31L244,68.1L244,68.1z"/>
		<path d="M415.2,149.7c0-50.6,34.3-84.9,78.3-84.9c44.1,0,78.3,34.3,78.3,84.9s-34.3,84.9-78.3,84.9
			C449.5,234.5,415.2,200.3,415.2,149.7z M494.8,208.4c26.4,0,46-21.2,46-58.7S521.2,91,494.8,91h-2.6c-26.4,0-46,21.2-46,58.7
			s19.6,58.7,46,58.7H494.8z"/>
		<path d="M602.4,68.1h31v22.8c9.8-14.7,26.1-26.1,49-26.1c23.5,0,43.1,9.1,53.9,30.4c12.7-22.5,33.9-30.4,53.9-30.4
			c37.5,0,58.7,22.8,58.7,57.1v109.4h-31V128.5c0-22.8-9.8-37.5-33-37.5h-2.6c-19.9,0-41.1,18-41.1,49v91.3h-31V128.5
			c0-22.8-9.8-37.5-33-37.5h-2.6c-19.9,0-41.1,18-41.1,49v91.3h-31V68.1H602.4z"/>
		<path d="M986.9,231.3c-1.6-8.2-1.6-24.5-1.6-26.1c-6.5,14.7-26.1,29.4-52.2,29.4c-31,0-53.9-20.6-53.9-48.3
			c0-37.2,33-48.3,59.4-50.6l45-3.6v-5.2c0-22.8-13.1-35.9-33.9-35.9h-2.6c-17,0-31.7,8.2-33.6,24.5h-31c2-30,29-50.6,65.9-50.6
			c43.4,0,66.3,28.7,66.3,62v68.5c0,9.8,0,24.5,1.6,35.9L986.9,231.3L986.9,231.3z M983.6,172.5v-16.6l-40.8,3.3
			c-18.9,1.6-32.6,10.8-32.6,25.8c0,13.4,11.1,23.5,26.4,23.5h2.6C959.1,208.4,983.6,192.1,983.6,172.5z"/>
		<path d="M1052.8,2.8h31v228.5h-31V2.8z"/>
		<path d="M1114.4,149.7c0-50.6,34.3-84.9,78.3-84.9c44.1,0,78.3,34.3,78.3,84.9s-34.3,84.9-78.3,84.9
			C1148.7,234.5,1114.4,200.3,1114.4,149.7z M1194,208.4c26.4,0,46-21.2,46-58.7S1220.4,91,1194,91h-2.6c-26.4,0-46,21.2-46,58.7
			s19.6,58.7,46,58.7H1194z"/>
	</g>
	<g>
		<path class="st0" d="M1214.4,137.2v25l-21.6,12.5l-21.6-12.5v-25l21.6-12.5L1214.4,137.2z"/>
	</g>
</g>
</svg>
