<svg width="942" height="334" viewBox="0 0 942 334" fill="none" xmlns="http://www.w3.org/2000/svg">
<path d="M233.631 188.407C233.147 167.701 221.729 151.266 204.297 144.842V108.804C199.896 105.988 195.211 103.659 190.322 101.869V179.399C190.322 194.757 183.205 201.615 171.766 201.615C160.631 201.615 151.316 193.196 151.316 179.116C151.316 163.401 163.552 153.803 179.574 153.803C181.058 153.776 182.569 153.854 184.053 154.086V140.366C182.569 140.11 181.084 139.983 179.574 140.009C155.795 140.009 137.163 154.601 137.163 179.146C137.163 202.746 153.978 215.338 172.715 215.338C181.596 215.338 189.275 212.316 194.575 207.121C199.872 201.925 204.354 194.424 204.354 181.243V159.766C214.029 164.605 219.864 176.326 219.891 189.74C219.841 215.002 196.419 236.35 168.957 236.35C168.317 236.35 167.829 236.35 167.19 236.323C148.352 236.3 131.792 229.489 118.378 216.052C108.727 206.377 102.125 194.064 99.4629 180.677C96.801 167.264 98.1572 153.393 103.403 140.746C108.626 128.127 117.48 117.325 128.844 109.723C140.208 102.121 153.571 98.0764 167.237 98.0764V84C156.307 84 145.481 86.1503 135.396 90.3231C125.311 94.4959 116.124 100.637 108.394 108.343C92.7797 123.931 84 145.098 84 167.163C84 189.225 92.7528 210.395 108.34 226.009C123.927 241.623 145.094 250.403 167.16 250.403H168.926C175.71 250.403 182.468 249.353 188.969 247.331C188.996 247.331 189.02 247.304 189.046 247.304C198.439 244.386 207.04 239.419 214.258 232.766C226.723 221.248 233.584 206.02 233.635 189.817C233.658 189.763 233.631 188.434 233.631 188.407Z" fill="black"/>
<path d="M255.898 165.692C255.898 142.476 273 123.79 297.01 121.976C298.256 121.861 299.501 121.861 300.86 121.861C302.105 121.861 303.465 121.861 304.599 121.976C321.246 123.221 332.233 132.394 336.423 137.943L325.325 146.891C320.341 140.323 312.527 135.339 300.864 135.228C283.651 135.228 271.644 148.365 271.644 165.578C271.644 182.905 283.647 196.268 300.864 196.268C310.151 196.154 317.4 193.549 322.38 189.814V175.091H300.295V162.179H337.214V196.494C330.305 202.948 318.187 209.631 300.86 209.631C274.7 209.52 255.898 190.043 255.898 165.692ZM579.087 207.915V123.769H608.421C618.84 123.769 627.902 125.129 636.056 130.224C647.948 137.698 655.308 150.835 655.308 165.787C655.308 180.849 647.945 193.987 636.056 201.461C627.902 206.555 618.843 207.915 608.421 207.915H579.087ZM594.604 194.548H607.856C615.104 194.548 621.219 193.983 627.222 190.13C634.811 185.146 639.455 175.973 639.455 165.669C639.455 155.59 634.811 146.417 627.222 141.433C621.219 137.583 615.104 136.904 607.741 136.904H594.604V194.548ZM345.936 176.676C345.936 158.555 360.319 143.832 379.911 143.832C399.732 143.832 414 158.555 414 176.676C414 194.798 399.732 209.631 379.911 209.631C360.205 209.634 345.936 194.912 345.936 176.676ZM662.667 176.881C662.667 158.76 675.011 144.038 693.926 144.038C704.119 144.038 711.139 148.342 714.992 153.097H715.106L715.786 145.848H729.943L730.058 208.023H716.126L715.446 200.209L715.221 200.094C711.597 205.304 704.237 209.833 694.155 209.833C674.9 209.84 662.667 195.003 662.667 176.881ZM398.823 176.905C398.823 165.692 391.46 156.744 379.911 156.744C368.587 156.744 360.999 165.692 360.999 176.905C360.999 187.778 368.587 196.611 379.911 196.611C391.463 196.611 398.823 187.778 398.823 176.905ZM715.329 176.881C715.329 165.783 708.08 156.95 696.527 156.95C685.429 156.95 677.726 165.783 677.726 176.881C677.726 187.98 685.429 196.813 696.527 196.813C708.083 196.817 715.329 187.98 715.329 176.881ZM753.382 199.987C750.212 195.797 749.303 190.813 749.303 184.244V158.424H737.751V145.851H749.303V122.635C749.757 122.75 750.097 122.861 750.548 123.09C752.813 123.995 755.192 124.9 757.342 126.034C759.722 127.279 761.986 128.524 764.251 129.884V145.851H783.392V158.424H764.251V183.339C764.251 187.418 764.816 190.588 766.516 192.627C768.101 194.777 770.705 196.026 773.99 196.026C777.728 196.026 780.673 194.781 782.369 193.536L787.918 204.183C785.199 206.333 779.199 209.052 771.951 209.052C764.369 209.046 757.346 206.33 753.382 199.987ZM421.363 176.676C421.363 158.555 435.631 143.832 455.337 143.832C475.044 143.832 489.426 158.555 489.426 176.676C489.426 194.798 475.044 209.631 455.337 209.631C435.517 209.634 421.363 194.912 421.363 176.676ZM474.249 176.905C474.249 165.692 466.775 156.744 455.337 156.744C443.899 156.744 436.425 165.692 436.425 176.905C436.425 187.778 443.899 196.611 455.337 196.611C466.775 196.611 474.249 187.778 474.249 176.905ZM790.19 176.881C790.19 158.76 802.533 144.038 821.448 144.038C831.642 144.038 838.661 148.342 842.514 153.097H842.629L843.308 145.848H857.466L857.58 208.023H843.648L842.969 200.209L842.743 200.094C839.119 205.304 831.759 209.833 821.677 209.833C802.422 209.84 790.19 195.003 790.19 176.881ZM842.854 176.881C842.854 165.783 835.606 156.95 824.053 156.95C812.955 156.95 805.252 165.783 805.252 176.881C805.252 187.98 812.955 196.813 824.053 196.813C835.606 196.817 842.854 187.98 842.854 176.881ZM517.172 207.821C504.374 203.402 496.675 191.059 496.675 176.676C496.675 158.555 509.018 143.832 527.934 143.832C538.127 143.832 545.146 148.136 548.999 152.891H549.114V116.403L551.264 117.197C553.754 118.217 556.134 119.237 558.398 120.482C560.323 121.501 562.248 122.521 564.062 123.766V207.821H550.13L549.45 200.007L549.225 199.892C546.96 203.062 543.336 206.007 538.578 207.821C535.519 208.955 532.009 209.631 528.159 209.631C524.195 209.634 520.456 208.955 517.172 207.821ZM549.336 176.676C549.336 165.578 542.087 156.744 530.535 156.744C519.437 156.744 511.734 165.578 511.734 176.676C511.734 187.774 519.437 196.608 530.535 196.608C542.087 196.611 549.336 187.778 549.336 176.676Z" fill="black"/>
</svg>
